Coordinates
version=1
nRows=18
nColumns=63
inDegrees=yes

Units are S.I. units (second, meters, Newtons, ...)
If the header above contains a line with 'inDegrees', this indicates whether rotational values are in degrees (yes) or radians (no).

endheader
time	pelvis_tilt	pelvis_list	pelvis_rotation	pelvis_tx	pelvis_ty	pelvis_tz	hip_flexion_r	hip_adduction_r	hip_rotation_r	knee_angle_r	knee_angle_r_beta	ankle_angle_r	subtalar_angle_r	mtp_angle_r	hip_flexion_l	hip_adduction_l	hip_rotation_l	knee_angle_l	knee_angle_l_beta	ankle_angle_l	subtalar_angle_l	mtp_angle_l	L5_S1_Flex_Ext	L5_S1_Lat_Bending	L5_S1_axial_rotation	L4_L5_Flex_Ext	L4_L5_Lat_Bending	L4_L5_axial_rotation	L3_L4_Flex_Ext	L3_L4_Lat_Bending	L3_L4_axial_rotation	L2_L3_Flex_Ext	L2_L3_Lat_Bending	L2_L3_axial_rotation	L1_L2_Flex_Ext	L1_L2_Lat_Bending	L1_L2_axial_rotation	L1_T12_Flex_Ext	L1_T12_Lat_Bending	L1_T12_axial_rotation	Abs_r3	Abs_r2	Abs_r1	Abs_t1	Abs_t2	neck_flexion	neck_bending	neck_rotation	arm_flex_r	arm_add_r	arm_rot_r	elbow_flex_r	pro_sup_r	wrist_flex_r	wrist_dev_r	arm_flex_l	arm_add_l	arm_rot_l	elbow_flex_l	pro_sup_l	wrist_flex_l	wrist_dev_l
3.169492	-5.445805	-5.380426	88.459472	0.205524	0.877146	0.645817	2.885955	-5.783953	4.457552	6.416404	0.111987	29.435596	7.587647	0.000000	4.265028	5.226008	5.595862	8.265053	0.144252	23.876832	-2.673835	0.000000	-0.111515	-1.130933	0.921485	-0.207095	-1.504141	0.979078	-0.183208	-2.749750	0.979078	-0.127451	-2.749750	0.806299	-0.103553	-2.306198	0.748706	-0.063720	-1.751815	0.691114	-0.796542	-12.793339	5.125022	0.000000	0.000000	27.361990	13.392378	-19.787755	49.118898	-6.829643	-5.575641	84.733976	87.797813	-3.822132	2.068157	12.132308	-17.424500	117.896871	10.439468	3.914742	-9.350164	-11.418783
3.186441	-5.384367	-5.361066	88.392468	0.205044	0.877092	0.645563	2.869125	-5.765693	4.304002	6.444746	0.112482	29.466974	7.826322	0.000000	4.217570	5.201002	5.810051	8.233885	0.143708	23.854402	-2.996317	0.000000	-0.096519	-1.111935	0.899181	-0.179246	-1.478874	0.955380	-0.158572	-2.703559	0.955380	-0.110312	-2.703559	0.786784	-0.089628	-2.267458	0.730585	-0.055151	-1.722388	0.674386	-0.689427	-12.578433	5.000976	0.000000	0.000000	27.490395	13.039722	-19.817870	48.532556	-6.690616	-6.581518	84.025215	87.715070	-5.577389	2.448803	12.045507	-17.367780	116.661600	10.462624	4.029657	-9.415853	-11.712359
3.203390	-5.316390	-5.355811	88.330491	0.204625	0.876997	0.645239	2.859704	-5.738229	4.138744	6.472581	0.112968	29.535946	8.073564	0.000000	4.171672	5.171697	6.168390	8.200750	0.143130	23.775827	-3.458123	0.000000	-0.079563	-1.094488	0.893858	-0.147757	-1.455670	0.949724	-0.130715	-2.661139	0.949724	-0.090933	-2.661139	0.782126	-0.073882	-2.231881	0.726260	-0.045462	-1.695362	0.670393	-0.568313	-12.381071	4.971369	0.000000	0.000000	27.557934	12.662326	-19.940978	47.858859	-6.750392	-7.408891	83.177605	87.725174	-7.272937	2.957662	12.008796	-17.279050	116.178261	10.405318	4.139831	-9.565253	-11.926084
3.220339	-5.238101	-5.364691	88.278620	0.204241	0.876851	0.644843	2.855768	-5.697566	3.960866	6.496888	0.113392	29.649323	8.324577	0.000000	4.124943	5.139804	6.705414	8.158815	0.142398	23.634025	-4.130505	0.000000	-0.061334	-1.077091	0.905282	-0.113903	-1.432531	0.961862	-0.100765	-2.618839	0.961862	-0.070098	-2.618839	0.792122	-0.056955	-2.196404	0.735542	-0.035046	-1.668414	0.678962	-0.438101	-12.184268	5.034908	0.000000	0.000000	27.582669	12.228189	-20.134091	47.131486	-6.988915	-8.045783	82.214242	87.781776	-8.848277	3.574570	12.025930	-17.142038	116.460231	10.259406	4.264681	-9.795936	-12.040713
3.237288	-5.153240	-5.393433	88.229386	0.203941	0.876670	0.644400	2.869689	-5.648347	3.709614	6.521805	0.113827	29.805422	8.685854	0.000000	4.094514	5.098499	7.289604	8.122079	0.141757	23.488224	-4.837776	0.000000	-0.041381	-1.061018	0.933498	-0.076849	-1.411154	0.991842	-0.067985	-2.579760	0.991842	-0.047295	-2.579760	0.816811	-0.038427	-2.163628	0.758467	-0.023645	-1.643517	0.700124	-0.295582	-12.002451	5.191838	0.000000	0.000000	27.596445	11.820989	-20.396798	46.383336	-7.377615	-8.452497	81.098610	87.885516	-10.476378	3.993648	12.085684	-17.000225	117.047098	10.107380	4.306246	-10.081362	-12.097678
3.254237	-5.073492	-5.448679	88.190482	0.203722	0.876442	0.643925	2.904332	-5.596005	3.489805	6.538637	0.114121	29.983743	9.009553	0.000000	4.090979	5.053855	7.829647	8.089424	0.141187	23.374522	-5.457378	0.000000	-0.019581	-1.047539	0.979279	-0.036363	-1.393227	1.040484	-0.032169	-2.546986	1.040484	-0.022379	-2.546986	0.856869	-0.018183	-2.136141	0.795664	-0.011188	-1.622638	0.734459	-0.139862	-11.849968	5.446454	0.000000	0.000000	27.609965	11.406649	-20.766155	45.628930	-7.891464	-8.702721	79.884911	88.023444	-12.040710	4.259174	12.199996	-16.859365	117.885491	9.968230	4.309875	-10.391752	-12.114053
3.271186	-4.990366	-5.513167	88.162085	0.203556	0.876186	0.643447	2.948013	-5.534991	3.262133	6.559665	0.114488	30.188494	9.346868	0.000000	4.103756	4.998232	8.280216	8.070602	0.140859	23.317409	-5.951673	0.000000	0.001324	-1.034483	1.038198	0.002459	-1.375862	1.103085	0.002175	-2.515242	1.103085	0.001513	-2.515242	0.908423	0.001229	-2.109518	0.843536	0.000756	-1.602414	0.778649	0.009456	-11.702278	5.774146	0.000000	0.000000	27.621167	10.977771	-21.174247	44.901097	-8.496009	-8.803091	78.590433	88.180489	-13.477519	4.316518	12.360213	-16.700622	119.009294	9.815745	4.298046	-10.713688	-12.066904
3.288136	-4.915715	-5.589681	88.153071	0.203446	0.875915	0.642977	2.997089	-5.476704	3.035131	6.572306	0.114708	30.403837	9.681679	0.000000	4.139394	4.937721	8.565072	8.068760	0.140826	23.331538	-6.209895	0.000000	0.021436	-1.023926	1.105601	0.039809	-1.361822	1.174701	0.035218	-2.489575	1.174701	0.024500	-2.489575	0.967401	0.019906	-2.087991	0.898301	0.012249	-1.586062	0.829201	0.153117	-11.582861	6.149023	0.000000	0.000000	27.623911	10.555693	-21.653648	44.164548	-9.164836	-8.789790	77.352696	88.359014	-14.794842	4.289332	12.536647	-16.565744	119.985232	9.706710	4.340866	-11.031214	-11.988960
3.305085	-4.836731	-5.658224	88.143281	0.203379	0.875657	0.642593	3.045705	-5.409271	2.841715	6.591898	0.115050	30.614618	9.994029	0.000000	4.180134	4.865880	8.744218	8.083241	0.141079	23.395077	-6.347752	0.000000	0.037252	-1.013235	1.175600	0.069180	-1.347603	1.249075	0.061201	-2.463580	1.249075	0.042575	-2.463580	1.028650	0.034592	-2.066189	0.955175	0.021286	-1.569502	0.881700	0.266084	-11.461921	6.538333	0.000000	0.000000	27.616934	10.163937	-22.134497	43.443037	-9.842882	-8.663053	76.191027	88.542329	-15.904167	4.014526	12.736821	-16.425065	121.123724	9.590715	4.364819	-11.339437	-11.862699
3.322034	-4.758419	-5.720547	88.131445	0.203332	0.875417	0.642288	3.092610	-5.337903	2.704304	6.612983	0.115418	30.805824	10.243467	0.000000	4.224677	4.788331	8.811141	8.107127	0.141496	23.494644	-6.357728	0.000000	0.049656	-1.002567	1.243870	0.092216	-1.333414	1.321612	0.081580	-2.437642	1.321612	0.056752	-2.437642	1.088386	0.046110	-2.044435	1.010644	0.028373	-1.552977	0.932902	0.354687	-11.341241	6.918032	0.000000	0.000000	27.592722	9.796837	-22.605171	42.695768	-10.500366	-8.457906	75.257231	88.720639	-16.737708	3.696839	12.941743	-16.281884	122.367751	9.464245	4.384474	-11.638215	-11.707707
3.338983	-4.682449	-5.770257	88.117383	0.203299	0.875208	0.642068	3.129322	-5.264812	2.641252	6.631421	0.115740	30.957740	10.400069	0.000000	4.266131	4.708357	8.777315	8.139192	0.142056	23.617035	-6.259481	0.000000	0.057865	-0.992136	1.304411	0.107460	-1.319541	1.385937	0.095066	-2.412280	1.385937	0.066133	-2.412280	1.141360	0.053733	-2.023164	1.059834	0.033064	-1.536819	0.978308	0.413321	-11.223243	7.254744	0.000000	0.000000	27.545081	9.475138	-23.051001	41.925962	-11.096930	-8.195467	74.615522	88.881673	-17.285879	3.390749	13.135750	-16.141866	123.719762	9.316860	4.400594	-11.930557	-11.545339
3.355932	-4.612545	-5.804344	88.092789	0.203291	0.875035	0.641930	3.152737	-5.191267	2.698971	6.644762	0.115973	31.046094	10.399752	0.000000	4.297398	4.631237	8.676940	8.170747	0.142606	23.734746	-6.115812	0.000000	0.061835	-0.982183	1.354426	0.114834	-1.306303	1.439078	0.101589	-2.388079	1.439078	0.070671	-2.388079	1.185123	0.057420	-2.002867	1.100471	0.035333	-1.521401	1.015819	0.441682	-11.110648	7.532911	0.000000	0.000000	27.476394	9.208065	-23.449663	41.164645	-11.585638	-7.920828	74.269513	89.010494	-17.531053	3.139249	13.309750	-16.004682	125.271049	9.135846	4.403681	-12.237070	-11.371742
3.372881	-4.556954	-5.825006	88.081035	0.203254	0.874883	0.641873	3.160981	-5.131642	2.805598	6.652629	0.116110	31.084555	10.306282	0.000000	4.325827	4.569447	8.538790	8.209775	0.143288	23.855599	-5.926222	0.000000	0.062670	-0.973080	1.382491	0.116385	-1.294196	1.468897	0.102961	-2.365947	1.468897	0.071626	-2.365947	1.209680	0.058196	-1.984305	1.123274	0.035810	-1.507301	1.036869	0.447649	-11.007675	7.689003	0.000000	0.000000	27.384339	9.030270	-23.728859	40.483218	-11.933903	-7.593065	74.132802	89.101576	-17.664984	2.866773	13.426870	-15.883392	126.817717	8.927580	4.405802	-12.534866	-11.252188
3.389831	-4.519702	-5.826456	88.069961	0.203202	0.874752	0.641879	3.151347	-5.092719	2.930118	6.656624	0.116180	31.071210	10.170217	0.000000	4.333461	4.534925	8.486439	8.231791	0.143672	23.927606	-5.877016	0.000000	0.060402	-0.965287	1.394020	0.112172	-1.283831	1.481147	0.099234	-2.346998	1.481147	0.069033	-2.346998	1.219768	0.056089	-1.968413	1.132642	0.034514	-1.495229	1.045515	0.431443	-10.919516	7.753123	0.000000	0.000000	27.279884	8.899247	-23.927644	39.933209	-12.136720	-7.269575	74.134352	89.149413	-17.721807	2.585864	13.496428	-15.781765	128.307807	8.722021	4.371936	-12.820198	-11.149062
3.406780	-4.505835	-5.811408	88.044854	0.203178	0.874630	0.641918	3.125351	-5.072891	3.171479	6.651562	0.116092	30.987143	9.874538	0.000000	4.324376	4.526255	8.457413	8.240910	0.143831	23.973280	-5.889030	0.000000	0.056745	-0.959823	1.396866	0.105381	-1.276564	1.484170	0.093226	-2.333712	1.484170	0.064854	-2.333712	1.222258	0.052693	-1.957270	1.134954	0.032424	-1.486765	1.047650	0.405324	-10.857704	7.768950	0.000000	0.000000	27.170555	8.783693	-24.091494	39.539862	-12.189197	-7.045260	74.205105	89.170633	-17.620042	2.287130	13.529971	-15.700697	129.759991	8.522215	4.301358	-13.076522	-11.044422
3.423729	-4.517611	-5.782451	88.019187	0.203165	0.874512	0.641986	3.083770	-5.078444	3.463808	6.636646	0.115831	30.847665	9.494699	0.000000	4.298849	4.549754	8.520741	8.230665	0.143652	23.976019	-6.032636	0.000000	0.052455	-0.957426	1.392891	0.097415	-1.273377	1.479947	0.086179	-2.327886	1.479947	0.059951	-2.327886	1.218780	0.048710	-1.952384	1.131724	0.029973	-1.483053	1.044668	0.374684	-10.830597	7.746843	0.000000	0.000000	27.066411	8.664861	-24.236464	39.310097	-12.154881	-6.878338	74.297849	89.193572	-17.529396	1.951103	13.528043	-15.660399	130.893045	8.385318	4.238532	-13.285339	-10.947351
3.440678	-4.551579	-5.747359	88.004480	0.203163	0.874389	0.642050	3.027723	-5.101754	3.831647	6.607148	0.115316	30.640980	8.970204	0.000000	4.265150	4.596903	8.623212	8.203242	0.143174	23.971539	-6.203647	0.000000	0.049275	-0.958412	1.386021	0.091509	-1.274688	1.472647	0.080954	-2.330284	1.472647	0.056317	-2.330284	1.212769	0.045757	-1.954395	1.126142	0.028156	-1.484581	1.039516	0.351968	-10.841752	7.708634	0.000000	0.000000	26.975565	8.517740	-24.417981	39.205203	-12.061932	-6.822533	74.409279	89.201722	-17.376681	1.628971	13.506111	-15.656199	131.773591	8.301908	4.147415	-13.432604	-10.853466
3.457627	-4.611623	-5.702106	87.992756	0.203189	0.874272	0.642113	2.957535	-5.147219	4.268836	6.569439	0.114658	30.384256	8.323912	0.000000	4.219301	4.672668	8.780043	8.159518	0.142410	23.947974	-6.434729	0.000000	0.046956	-0.963169	1.374384	0.087202	-1.281015	1.460283	0.077144	-2.341849	1.460283	0.053666	-2.341849	1.202586	0.043604	-1.964094	1.116687	0.026831	-1.491949	1.030788	0.335404	-10.895560	7.643913	0.000000	0.000000	26.905512	8.383604	-24.557343	39.215356	-11.897503	-6.871662	74.476235	89.146621	-17.090411	1.287777	13.449542	-15.697646	132.247689	8.277918	4.036933	-13.499915	-10.791059
